<?xml version="1.0" standalone="no"?>
<!DOCTYPE svg PUBLIC "-//W3C//DTD SVG 20010904//EN"
 "http://www.w3.org/TR/2001/REC-SVG-20010904/DTD/svg10.dtd">
<svg version="1.0" xmlns="http://www.w3.org/2000/svg"
 width="512.000000pt" height="512.000000pt" viewBox="0 0 512.000000 512.000000"
 preserveAspectRatio="xMidYMid meet">
    <g transform="translate(0.000000,512.000000) scale(0.100000,-0.100000)"
    fill="#000000" stroke="none">
    <path d="M2565 3841 c-72 -18 -143 -79 -184 -158 -18 -36 -23 -39 -112 -62
    -52 -13 -132 -38 -178 -56 l-83 -33 -97 96 c-155 156 -264 208 -420 200 -194
    -9 -343 -134 -392 -329 -41 -159 -14 -331 72 -475 33 -54 149 -174 170 -174 5
    0 3 -12 -5 -27 -29 -57 -79 -213 -112 -350 -18 -79 -45 -175 -59 -215 -14 -39
    -25 -84 -25 -98 l0 -27 -124 5 c-145 5 -243 -12 -321 -57 -125 -73 -207 -206
    -235 -383 l-13 -78 -133 0 c-125 0 -134 -1 -134 -19 0 -18 12 -19 253 -23 272
    -5 287 -7 432 -70 39 -17 135 -68 215 -114 182 -104 296 -144 430 -151 225
    -13 350 83 353 269 l1 68 1538 0 c1531 0 1538 0 1538 20 0 19 -7 20 -186 20
    -173 0 -186 1 -179 18 73 169 126 349 150 508 19 128 19 376 0 485 -29 168
    -69 247 -152 299 -138 88 -254 25 -367 -200 -59 -118 -188 -319 -272 -424 -56
    -71 -51 -79 -94 123 -30 141 -66 267 -94 336 -17 39 -17 40 6 54 61 38 156
    149 195 228 54 108 66 171 61 313 -6 142 -27 203 -99 283 -95 107 -200 157
    -328 157 -138 0 -258 -59 -407 -202 l-81 -78 -103 41 c-56 23 -142 51 -190 63
    l-88 21 5 70 c5 66 4 72 -21 96 -14 15 -40 29 -57 33 -35 7 -32 7 -74 -3z
    m106 -52 c28 -28 21 -74 -26 -183 -19 -44 -35 -82 -35 -85 0 -2 11 6 24 18 14
    13 29 20 35 16 22 -13 10 -40 -41 -88 l-53 -49 45 22 c57 28 100 68 100 94 0
    11 -10 30 -22 43 -12 13 -18 26 -14 30 12 13 209 -43 325 -92 286 -121 497
    -326 646 -630 74 -151 111 -263 154 -467 18 -81 41 -173 53 -205 52 -143 13
    -372 -93 -543 l-31 -50 -942 0 -941 0 -17 48 c-26 71 -87 160 -152 220 -107
    97 -283 185 -438 219 -92 19 -93 22 -52 136 14 39 40 135 59 212 77 320 174
    521 355 738 95 113 203 200 339 270 108 57 281 120 358 133 37 6 47 13 72 53
    85 132 230 202 292 140z"/>
    <path d="M1852 2949 c-158 -27 -309 -167 -363 -338 -29 -91 -30 -241 -1 -328
    25 -80 73 -154 126 -198 221 -181 569 -54 686 250 19 49 23 79 23 160 -1 107
    -19 177 -67 260 -51 87 -173 175 -262 190 -76 12 -89 13 -142 4z m272 -390
    c33 -39 33 -71 -1 -108 -40 -42 -65 -47 -99 -17 -38 32 -40 93 -5 130 34 36
    72 34 105 -5z"/>
    <path d="M3080 2924 c-187 -50 -320 -241 -320 -458 0 -180 120 -359 297 -444
    73 -35 84 -37 173 -37 84 0 103 3 157 29 276 127 317 572 75 798 -62 58 -124
    93 -197 112 -72 19 -113 19 -185 0z m-35 -354 c31 -12 59 -71 49 -103 -10 -34
    -45 -67 -72 -67 -13 0 -37 13 -53 29 -53 54 -31 123 48 150 1 1 13 -3 28 -9z"/>
    <path d="M2373 2314 c-9 -23 65 -123 114 -154 36 -23 41 -30 30 -43 -16 -21
    -79 -47 -115 -47 -16 0 -54 13 -84 28 -53 26 -55 27 -39 6 47 -64 143 -81 225
    -40 l48 24 35 -23 c68 -47 160 -40 220 17 36 34 27 39 -19 13 -57 -33 -132
    -34 -178 -2 -19 12 -35 27 -37 32 -1 6 15 20 37 33 42 24 120 118 120 144 0
    25 -22 28 -191 28 -135 0 -161 -2 -166 -16z"/>
    </g>
</svg>
